<?xml version="1.0" standalone="no"?>
<!DOCTYPE svg PUBLIC "-//W3C//DTD SVG 20010904//EN"
 "http://www.w3.org/TR/2001/REC-SVG-20010904/DTD/svg10.dtd">
<svg version="1.0" xmlns="http://www.w3.org/2000/svg"
 width="150.000000pt" height="150.000000pt" viewBox="0 0 150.000000 150.000000"
 preserveAspectRatio="xMidYMid meet">
<metadata>
Created by potrace 1.14, written by Peter Selinger 2001-2017
</metadata>
<g transform="translate(0.000000,150.000000) scale(0.100000,-0.100000)"
fill="#000000" stroke="none">
<path d="M657 1116 c-69 -26 -124 -99 -98 -130 8 -10 9 -16 1 -21 -21 -13 -62
-109 -67 -160 -8 -73 20 -133 84 -179 138 -102 310 -101 378 3 47 70 78 170
78 251 1 81 -13 122 -61 172 -55 59 -232 95 -315 64z m223 -47 c87 -39 122
-92 121 -189 0 -96 -57 -231 -113 -272 -27 -19 -45 -23 -103 -23 -58 1 -80 6
-131 32 -107 56 -147 125 -124 215 25 93 87 168 142 173 20 1 33 8 33 16 0 20
-40 23 -77 5 -36 -19 -38 -19 -38 -7 0 20 55 61 93 70 55 13 141 4 197 -20z"/>
<path d="M662 868 c2 -25 8 -33 23 -33 16 0 20 7 20 30 0 24 -5 31 -23 33 -21
3 -23 0 -20 -30z"/>
<path d="M873 874 c-7 -20 11 -38 32 -30 13 4 14 10 5 26 -13 24 -28 26 -37 4z"/>
<path d="M610 716 c0 -32 111 -86 177 -86 42 0 101 24 109 45 11 27 -3 28 -51
5 -55 -27 -96 -22 -172 21 -61 33 -63 34 -63 15z"/>
</g>
</svg>
